<svg version="1.1" id="Layer_1" xmlns="http://www.w3.org/2000/svg" xmlns:xlink="http://www.w3.org/1999/xlink" x="0px" y="0px"
	 width="32" height="32" viewBox="0 0 32 32" enable-background="new 0 0 323 324" xml:space="preserve">
<path fill="#AFB2BA" 
	d="
M1.000001,180.000000 
	C1.000000,168.979111 1.000000,157.958206 1.303463,146.222641 
	C2.037025,143.224442 2.572880,140.955124 2.881842,138.655334 
	C11.859035,71.832527 68.086395,14.269440 134.464111,3.963946 
	C140.647095,3.004005 146.821579,1.989286 153.000000,1.000000 
	C158.688034,1.000000 164.376083,1.000000 170.828064,1.282480 
	C175.217422,1.978278 178.850342,2.334782 182.467102,2.813327 
	C251.141953,11.899887 304.834259,60.756084 320.162903,128.146576 
	C321.584991,134.398499 322.727600,140.714020 324.000000,147.000000 
	C324.000000,157.687561 324.000000,168.375122 323.696167,179.776947 
	C322.962402,182.774979 322.426727,185.044556 322.117950,187.344589 
	C313.147430,254.163528 256.917908,311.725922 190.528107,322.036835 
	C184.347733,322.996674 178.175827,324.010986 172.000000,325.000000 
	C165.645599,325.000000 159.291214,325.000000 152.188416,324.708527 
	C148.317291,323.992004 145.198349,323.536499 142.071259,323.146423 
	C73.034943,314.534851 16.646816,261.606567 3.879334,193.461533 
	C3.034590,188.952805 1.965006,184.486191 1.000001,180.000000 
M157.382324,141.009476 
	C158.294449,138.508942 159.047791,135.936386 160.143814,133.519241 
	C168.971741,114.050720 184.174332,103.016220 205.346603,101.301163 
	C225.852081,99.640129 243.136185,105.910118 254.414551,124.526505 
	C255.270966,125.940147 257.877777,126.967369 259.698639,127.010689 
	C269.690796,127.248383 279.691711,127.144699 289.689331,127.097702 
	C291.077454,127.091171 292.464020,126.749474 294.419952,126.486465 
	C290.779572,115.437920 285.274780,106.234291 277.750549,98.341881 
	C256.746948,76.310509 230.387299,68.782257 200.873535,71.466217 
	C175.101501,73.809906 153.705185,85.067062 137.897476,105.899208 
	C123.420708,124.977379 118.336769,146.849869 119.961571,170.408829 
	C122.156616,202.236069 136.478668,226.928802 164.255646,243.129120 
	C183.593399,254.407455 204.720139,257.219788 226.560547,253.898788 
	C257.448242,249.202103 280.164398,233.165649 292.893646,204.085999 
	C293.506195,202.686630 293.704041,201.105713 294.272125,198.931488 
	C281.463562,198.931488 269.495972,198.844650 257.534027,199.064758 
	C256.327057,199.086960 254.737625,200.732635 254.026581,202.013870 
	C237.124802,232.468567 188.645508,232.093155 168.479767,206.278061 
	C153.291718,186.835144 151.768692,164.894989 157.382324,141.009476 
M60.724659,73.162567 
	C57.197418,72.748878 55.687325,74.000290 55.693855,77.859268 
	C55.790051,134.675110 55.795448,191.491226 55.686169,248.307037 
	C55.678272,252.413116 57.275703,253.433701 61.007286,253.337982 
	C68.500061,253.145798 76.009422,253.071518 83.495804,253.363052 
	C87.799774,253.530670 89.257866,252.235886 89.247032,247.753403 
	C89.110443,191.270950 89.127991,134.788010 89.222374,78.305389 
	C89.228752,74.490387 88.218826,72.937408 84.170113,73.084343 
	C76.682274,73.356079 69.177505,73.161697 60.724659,73.162567 
z"/>


</svg>